HIERARCHY
ROOT Hips
{
	OFFSET 0.000000 0.000000 0.000000
	CHANNELS 6 Xposition Yposition Zposition Zrotation Yrotation Xrotation 
	JOINT LHipJoint
	{
		OFFSET 0.000000 0.000000 0.000000
		CHANNELS 3 Zrotation Yrotation Xrotation
		JOINT LeftUpLeg
		{
			OFFSET 1.363060 -1.794630 0.839290
			CHANNELS 3 Zrotation Yrotation Xrotation
			JOINT LeftLeg
			{
				OFFSET 2.448110 -6.726130 0.000000
				CHANNELS 3 Zrotation Yrotation Xrotation
				JOINT LeftFoot
				{
					OFFSET 2.562200 -7.039590 0.000000
					CHANNELS 3 Zrotation Yrotation Xrotation
					JOINT LeftToeBase
					{
						OFFSET 0.157640 -0.433110 2.322550
						CHANNELS 3 Zrotation Yrotation Xrotation
						End Site
						{
							OFFSET 0.000000 0.000000 0.000000
						}
					}
				}
			}
		}
	}
	JOINT RHipJoint
	{
		OFFSET 0.000000 0.000000 0.000000
		CHANNELS 3 Zrotation Yrotation Xrotation
		JOINT RightUpLeg
		{
			OFFSET -1.305520 -1.794630 0.839290
			CHANNELS 3 Zrotation Yrotation Xrotation
			JOINT RightLeg
			{
				OFFSET -2.542530 -6.985550 0.000000
				CHANNELS 3 Zrotation Yrotation Xrotation
				JOINT RightFoot
				{
					OFFSET -2.568260 -7.056230 0.000000
					CHANNELS 3 Zrotation Yrotation Xrotation
					JOINT RightToeBase
					{
						OFFSET -0.164730 -0.452590 2.363150
						CHANNELS 3 Zrotation Yrotation Xrotation
						End Site
						{
							OFFSET 0.000000 0.000000 0.000000
						}
					}
				}
			}
		}
	}
}
MOTION
Frames: 19
Frame Time: 0.008333
-10.954822 17.816858 -1.170546 -142.563972 87.774485 -138.802614 -11.680788 4.484277 0.213053 -3.361888 9.953088 5.377364 -0.002780 1.697051 21.189764 1.417497 6.872255 21.303144 2.709100 0.000000 -64.436700 8.242313 -0.313507 1.881885 11.197539 -5.173442 -24.043314 2.639214 1.587725 3.109494 -3.080241 -12.622094 -9.844342 -0.395500 0.000000 -47.395800
-10.717197 17.890843 -1.145937 -145.397151 88.097170 -142.013565 -11.744601 4.560291 0.193562 -3.234913 10.477118 5.229673 0.100497 1.758467 22.318593 1.568407 7.172014 23.650221 2.993500 0.000000 -60.544200 8.246100 -0.370501 1.924070 11.446157 -5.142920 -23.034842 2.609397 1.692217 1.991490 -3.037847 -12.788665 -9.069025 -0.603300 -0.000000 -47.756400
-10.481892 17.954746 -1.124103 -147.597604 88.468497 -144.587683 -11.803375 4.613072 0.144323 -3.122458 11.106203 4.984801 0.179704 1.806295 23.571121 1.719704 7.733805 25.312775 3.376500 0.000000 -56.241800 8.247138 -0.430461 1.960360 11.673265 -5.044482 -22.134361 2.581616 1.743218 1.334115 -2.996098 -12.889992 -8.448579 -0.768900 0.000001 -48.185999
-10.249321 18.008043 -1.104723 -149.188498 88.884915 -146.556955 -11.853120 4.643095 0.054421 -3.018473 11.845401 4.676541 0.239689 1.848269 24.912971 1.867391 8.583500 26.312926 3.881500 -0.000001 -52.019799 8.247247 -0.491224 1.991732 11.863886 -4.854315 -21.298393 2.549186 1.747014 1.082345 -2.965454 -12.968034 -8.000246 -0.887599 -0.000000 -48.666700
-10.019500 18.050376 -1.087389 -149.938882 89.328122 -147.691520 -11.892702 4.647223 -0.083123 -2.902989 12.702927 4.311673 0.287282 1.888872 26.335769 2.008616 9.694989 26.682758 4.490400 -0.000000 -48.182500 8.246605 -0.555125 2.025950 12.015712 -4.543148 -20.482499 2.505601 1.712713 1.145027 -2.958134 -13.085793 -7.712742 -0.966900 0.000001 -49.184400
-9.792385 18.081478 -1.071297 -150.064649 89.793494 -148.213055 -11.920292 4.628249 -0.267038 -2.782012 13.661768 3.905012 0.325487 1.932229 27.823461 2.144023 11.030726 26.476126 5.167900 -0.000000 -44.894000 8.248612 -0.619397 2.056984 12.123681 -4.142815 -19.660952 2.448940 1.647101 1.462916 -2.974622 -13.251206 -7.580197 -1.008200 -0.000001 -49.694099
-9.567820 18.101134 -1.055529 29.262102 89.686826 30.705120 -11.940204 4.603793 -0.489181 -2.669565 14.706191 3.456543 0.347313 1.985957 29.361801 2.275554 12.528298 25.749783 5.856800 -0.000000 -42.145900 8.254837 -0.671746 2.074726 12.186017 -3.694842 -18.815416 2.379810 1.561817 1.980357 -3.009636 -13.454611 -7.580805 -1.015300 0.000000 -50.144500
-9.345612 18.109165 -1.039319 36.874882 89.471840 37.886810 -11.875709 4.455280 -0.758337 -2.503094 15.732266 3.005546 0.426092 2.003694 30.969601 2.394357 14.106608 24.584224 6.500600 0.000000 -39.994199 8.317519 -0.798125 2.102571 12.238429 -3.301544 -17.955241 2.299593 1.421428 2.590394 -3.074896 -13.732306 -7.698875 -0.994400 -0.000000 -50.490801
-9.125173 18.105409 -1.021874 36.472335 88.946280 37.055166 -11.867725 4.403167 -1.027429 -2.421785 16.828346 2.472999 0.433595 2.067018 32.576625 2.519080 15.706651 23.040847 7.030800 -0.000000 -38.223200 8.348575 -0.845436 2.081506 12.225967 -2.930490 -17.051628 2.213753 1.307599 3.319987 -3.131527 -13.978227 -7.869916 -0.952800 -0.000001 -50.663300
-8.906618 18.089523 -1.002830 38.409980 88.517545 38.551527 -11.817112 4.314143 -1.309203 -2.342457 17.876387 1.912130 0.449714 2.124058 34.201138 2.638209 17.249738 21.207864 7.406700 0.000000 -36.790500 8.418866 -0.908335 2.037970 12.196204 -2.680329 -16.117397 2.124410 1.176673 4.069777 -3.191183 -14.228356 -8.069903 -0.899800 -0.000000 -50.621399
-8.689191 18.061380 -0.981910 40.784710 88.122941 40.501687 -11.744554 4.215888 -1.581346 -2.292510 18.855601 1.271077 0.460002 2.180901 35.835952 2.752309 18.680459 19.154598 7.595700 0.000000 -35.592700 8.514422 -0.972775 1.974799 12.148830 -2.552762 -15.199365 2.035842 1.040950 4.835609 -3.245766 -14.457068 -8.271289 -0.842200 0.000001 -50.294301
-8.472751 18.020724 -0.959287 43.261533 87.757554 42.580014 -11.657091 4.114354 -1.833235 -2.275744 19.735573 0.540197 0.462158 2.238096 37.467875 2.860541 19.961897 16.954171 7.588300 0.000000 -34.566800 8.629807 -1.036441 1.890719 12.090683 -2.556179 -14.321387 1.951748 0.903112 5.617037 -3.288838 -14.641389 -8.454965 -0.784600 0.000000 -49.628600
-8.257249 17.967401 -0.935536 45.614522 87.421830 44.568945 -11.564591 4.012262 -2.057665 -2.285760 20.494138 -0.289357 0.455214 2.296086 39.090150 2.960949 21.067514 14.660602 7.386499 -0.000000 -33.616400 8.755093 -1.098332 1.786098 12.033400 -2.684613 -13.510884 1.876141 0.764252 6.428343 -3.315644 -14.759893 -8.615681 -0.728000 0.000000 -48.580800
-8.042571 17.901422 -0.911412 47.672610 87.116436 46.311780 -11.477835 3.910242 -2.247900 -2.317601 21.116208 -1.236909 0.439107 2.354580 40.703682 3.051754 21.987105 12.315300 7.005500 0.000000 -32.695300 8.877764 -1.158145 1.666090 11.989700 -2.912651 -12.816634 1.812600 0.622466 7.322921 -3.324882 -14.794538 -8.778431 -0.665000 -0.000000 -47.090700
-7.828896 17.822945 -0.887993 49.262184 86.842403 47.642307 -11.409246 3.806637 -2.402078 -2.357706 21.596110 -2.311567 0.414275 2.414044 42.312003 3.131435 22.719661 9.944617 6.465700 0.000000 -31.758700 8.983016 -1.215094 1.533328 11.975133 -3.210257 -12.280390 1.764669 0.474392 8.368199 -3.316549 -14.728418 -8.987262 -0.582700 0.000000 -45.106100
-7.616624 17.732376 -0.866575 50.228629 86.602393 48.400606 -11.371646 3.697914 -2.524870 -2.379621 21.938014 -3.501313 0.380996 2.476520 43.920129 3.198325 23.265531 7.546128 5.782900 0.000001 -30.623899 9.055952 -1.268105 1.383863 12.006229 -3.558372 -11.916155 1.735732 0.316913 9.617808 -3.290347 -14.545650 -9.289528 -0.467700 0.000000 -42.614100
-7.406043 17.630388 -0.848205 50.431427 86.389933 48.452946 -11.373487 3.581204 -2.617687 -2.374834 22.149506 -4.816687 0.339651 2.543421 45.539164 3.253126 23.644262 5.129546 4.985400 -0.000000 -29.325500 9.086057 -1.315371 1.220335 12.091934 -3.923605 -11.773067 1.726970 0.143573 11.173778 -3.249698 -14.235965 -9.766841 -0.299200 -0.000000 -39.568000
-7.197734 17.517877 -0.833906 49.751564 86.195023 47.673435 -11.419954 3.454559 -2.686807 -2.329898 22.244205 -6.247023 0.289814 2.618599 47.177534 3.296871 23.874639 2.686552 4.094099 0.000000 -27.768400 9.068220 -1.354073 1.037844 12.234464 -4.296003 -11.865069 1.737866 -0.050055 13.101387 -3.195988 -13.790549 -10.482752 -0.065000 -0.000000 -35.988000
-6.992176 17.396041 -0.824252 48.107661 85.998319 45.976877 -11.509302 3.318684 -2.738086 -2.244226 22.237022 -7.786770 0.230649 2.707158 48.843288 3.332186 23.984515 0.215601 3.133400 -0.000000 -25.921099 9.006092 -1.379771 0.833400 12.425106 -4.665073 -12.202867 1.763922 -0.267355 15.454224 -3.132392 -13.214159 -11.489246 0.238999 -0.000000 -31.937500
